Coordinates
version=1
nRows=12
nColumns=42
inDegrees=yes

Units are S.I. units (second, meters, Newtons, ...)
If the header above contains a line with 'inDegrees', this indicates whether rotational values are in degrees (yes) or radians (no).

endheader
time	pelvis_tilt	pelvis_list	pelvis_rotation	pelvis_tx	pelvis_ty	pelvis_tz	hip_flexion_r	hip_adduction_r	hip_rotation_r	knee_angle_r	knee_adduction_r	knee_angle_r_beta	ankle_angle_r	subtalar_angle_r	mtp_angle_r	hip_flexion_l	hip_adduction_l	hip_rotation_l	knee_angle_l	knee_adduction_l	knee_angle_l_beta	ankle_angle_l	subtalar_angle_l	mtp_angle_l	lumbar_extension	lumbar_bending	lumbar_rotation	arm_flex_r	arm_add_r	arm_rot_r	elbow_flex_r	pro_sup_r	wrist_flex_r	wrist_dev_r	arm_flex_l	arm_add_l	arm_rot_l	elbow_flex_l	pro_sup_l	wrist_flex_l	wrist_dev_l
      2.66000000	     12.03069754	      3.07023863	      5.29568447	      0.82092455	      0.86781032	      0.16745369	     15.54247265	     -6.56346116	    -32.11553042	     17.05117715	      2.05170677	      0.29759918	      8.51746543	     37.41983634	     -7.50060504	    -29.67592059	      4.50951511	    -10.46057047	     15.18704039	     -5.02837236	      0.26506386	     28.76593677	     33.75249787	     -7.50060504	    -34.99437924	      0.60857371	     -2.70687187	     -3.81046841	    -11.99062054	     -3.45898081	     43.57674760	     90.00000001	      0.00000000	      0.00000000	     26.71497568	    -16.79874684	      7.43784737	     50.03613200	     90.00000001	      0.00000000	      0.00000000
      2.67000000	     11.99853319	      2.84537596	      5.48925444	      0.83553603	      0.86684349	      0.16803709	     15.37530216	     -5.93804548	    -32.42618286	     17.64791116	      1.39504777	      0.30801416	      8.03955058	     37.60076060	     -7.50059198	    -29.68892110	      3.87468960	    -10.76140734	     16.98602266	     -5.22930881	      0.29646202	     27.87043517	     33.82962603	     -7.50059198	    -34.70927760	      1.01162540	     -2.63960562	     -3.89952910	    -12.03103437	     -3.62141222	     43.35596496	     90.00000001	      0.00000000	      0.00000000	     26.50102854	    -16.68330005	      7.30339848	     50.49351495	     90.00000001	      0.00000000	      0.00000000
      2.68000000	     11.95372576	      2.70383921	      5.55820453	      0.84995366	      0.86618116	      0.16856025	     15.35009526	     -5.45028439	    -31.96954602	     18.62992635	      0.73589671	      0.32515355	      7.63155251	     37.50483896	     -7.50058658	    -29.70144739	      3.48023812	    -10.56654661	     18.70910083	     -5.46609937	      0.32653541	     26.93193700	     33.65127386	     -7.50058658	    -34.46514198	      1.31998249	     -2.50169428	     -3.91244286	    -12.13351831	     -3.68553177	     43.17534650	     90.00000001	      0.00000000	      0.00000000	     26.29360182	    -16.52671163	      7.21299008	     50.75292731	     90.00000001	      0.00000000	      0.00000000
      2.69000000	     12.07003012	      2.36820718	      5.60261550	      0.86485915	      0.86595194	      0.16949653	     15.27864954	     -4.80432031	    -32.09794969	     20.11349465	     -0.21476161	      0.35104671	      7.34449531	     37.46609821	     -7.50057914	    -29.68807298	      2.66874860	    -10.95581388	     20.85260442	     -5.51479975	      0.36394660	     24.99162161	     33.24736330	     -7.50057914	    -34.32309870	      1.77508565	     -2.26459139	     -3.91549790	    -12.24904878	     -3.75213077	     42.92768645	     90.00000001	      0.00000000	      0.00000000	     25.83459864	    -16.37748079	      6.98908023	     51.16105403	     90.00000001	      0.00000000	      0.00000000
      2.70000000	     12.24692045	      1.85615714	      5.74383705	      0.87998209	      0.86608296	      0.17018805	     15.19683966	     -4.05710984	    -32.54417181	     21.87397523	     -1.39488233	      0.38177289	      7.53348903	     37.83844811	     -7.50056661	    -29.67289419	      1.76553893	    -11.25267246	     22.94213048	     -5.86797275	      0.40041571	     22.60871346	     33.22204511	     -7.50056661	    -34.21683190	      2.50843635	     -2.06448213	     -3.89121529	    -12.43914160	     -3.72443208	     42.77177347	     90.00000001	      0.00000000	      0.00000000	     25.20561908	    -16.18794263	      6.62650213	     51.58084778	     90.00000001	      0.00000000	      0.00000000
      2.71000000	     12.51093732	      1.40604203	      5.76764129	      0.89502748	      0.86663520	      0.17106700	     15.00600416	     -3.43234700	    -32.18236831	     23.78163498	     -2.20825660	      0.41506783	      7.89465966	     37.62437226	     -7.50055868	    -29.63954837	      0.94221688	    -11.40308843	     25.17528165	     -6.15385318	      0.43939155	     20.14570327	     32.89816197	     -7.50055868	    -34.23085186	      3.11360418	     -1.76261856	     -3.83083881	    -12.65324938	     -3.64872612	     42.61741821	     90.00000001	      0.00000000	      0.00000000	     24.61634464	    -16.01325715	      6.41738397	     51.82144207	     90.00000001	      0.00000000	      0.00000000
      2.72000000	     12.89325119	      0.96049917	      5.80009975	      0.90990663	      0.86771774	      0.17207528	     14.56687117	     -2.86858222	    -31.41373141	     25.61167356	     -2.64618631	      0.44700803	      8.19940224	     37.44656316	     -7.50055501	    -29.61430862	      0.13369730	    -11.21278673	     27.46601923	     -6.42895781	      0.47937247	     18.06779984	     32.65979392	     -7.50055501	    -34.42099828	      3.70778095	     -1.42668676	     -3.70836010	    -12.85590343	     -3.58481493	     42.48735298	     90.00000001	      0.00000000	      0.00000000	     24.05967022	    -15.85452190	      6.28712420	     51.92966225	     90.00000001	      0.00000000	      0.00000000
      2.73000000	     13.36339316	      0.33992868	      5.79803955	      0.92512889	      0.86919274	      0.17308795	     13.76434630	     -2.05160836	    -30.29911859	     27.11160155	     -2.70131102	      0.47318671	      9.61731696	     36.32405284	     -7.50053779	    -29.52751811	     -0.88088755	    -11.40510045	     29.90647203	     -6.75384832	      0.52196640	     14.48591271	     31.93022496	     -7.50053779	    -34.63607188	      4.47235113	     -1.08675034	     -3.62657190	    -13.23411445	     -3.02471346	     42.58908480	     90.00000001	      0.00000000	      0.00000000	     23.19932044	    -15.68195761	      5.96374328	     52.22906922	     90.00000001	      0.00000000	      0.00000000
      2.74000000	     13.95215059	     -0.17717209	      5.88809094	      0.93999248	      0.87107869	      0.17411426	     12.63005412	     -1.49613715	    -29.47410520	     28.39711004	     -2.39197069	      0.49562307	     10.38510616	     35.85763084	     -7.50053298	    -29.37050504	     -1.86546527	    -11.33392123	     32.48124410	     -7.03804145	      0.56690465	     12.33930124	     31.56459160	     -7.50053298	    -35.03151497	      5.13423701	     -0.75605600	     -3.48695377	    -13.46006749	     -2.89615157	     42.61639370	     90.00000001	      0.00000000	      0.00000000	     22.54295455	    -15.54028734	      5.89447020	     52.24143140	     90.00000001	      0.00000000	      0.00000000
      2.75000000	     14.61983208	     -1.11346273	      5.95766022	      0.95451512	      0.87349206	      0.17549244	     11.01292061	     -0.11871620	    -27.16311668	     28.64700322	     -1.41236322	      0.49998453	     11.31510311	     33.16584277	     -7.50050676	    -29.11264734	     -3.25611069	    -11.62165181	     35.05764442	     -7.49036745	      0.61187132	     10.09914612	     31.19634318	     -7.50050676	    -35.56018872	      6.18130263	     -0.22159197	     -3.31334606	    -13.95760328	     -2.07050105	     42.94543936	     90.00000001	      0.00000000	      0.00000000	     21.79270425	    -15.39119184	      5.76137937	     52.34746468	     90.00000001	      0.00000000	      0.00000000
      2.76000000	     15.13887513	     -1.68066286	      6.14414723	      0.96851889	      0.87582930	      0.17642877	      9.48199598	      0.59570507	    -26.23514844	     28.92300846	     -0.69554977	      0.50480173	     12.35457100	     32.43137438	     -7.50049531	    -28.43570147	     -4.26993719	    -11.63237500	     37.79381870	     -8.03050588	      0.65962657	      8.76294921	     30.74929211	     -7.50049531	    -35.97988472	      6.89973092	      0.06175000	     -3.07054150	    -14.21296331	     -1.93340906	     43.22955868	     90.00000001	      0.00000000	      0.00000000	     21.12810657	    -15.26999558	      5.73629266	     52.25735068	     90.00000001	      0.00000000	      0.00000000
      2.77000000	     15.49835478	     -2.35563608	      6.34277726	      0.98187658	      0.87808765	      0.17757476	      7.96492429	      1.55876181	    -25.31797510	     28.62996359	     -0.00632176	      0.49968713	     13.14624944	     31.58445208	     -7.50048199	    -27.24319962	     -5.47879816	    -12.08255696	     40.79738755	     -8.73055751	      0.71204874	      8.27334163	     30.55594356	     -7.50048199	    -36.29973364	      7.68172532	      0.41939518	     -2.78193105	    -14.49489487	     -1.63747916	     43.59253225	     90.00000001	      0.00000000	      0.00000000	     20.51559264	    -15.12914434	      5.73661017	     52.09908729	     90.00000001	      0.00000000	      0.00000000
